<svg width="239" height="146" viewBox="0 0 239 146" fill="none" xmlns="http://www.w3.org/2000/svg">
<g id="logo">
<path id="Path 2" fill-rule="evenodd" clip-rule="evenodd" d="M12.0056 56.0381C8.76171 56.6845 6.65276 59.8342 7.29078 63.0798L21.8573 137.179C22.5801 140.856 26.4594 142.978 29.9456 141.603L142.064 97.3939C144.493 96.4361 146.024 94.0176 145.85 91.4126L142.219 37.0044C141.978 33.3898 138.612 30.8117 135.06 31.5196L12.0056 56.0381Z" fill="#4779FF"/>
<g id="kes.im">
<path fill-rule="evenodd" clip-rule="evenodd" d="M148.504 38.0243L148.47 37.8968C147.719 35.0918 149.616 32.7385 152.676 31.9185C155.736 31.0986 158.556 32.1878 159.308 34.9929L159.342 35.1204C160.094 37.9254 158.213 40.3425 155.153 41.1624C152.093 41.9824 149.256 40.8294 148.504 38.0243ZM159.967 78.509L153.203 53.2636C152.485 50.586 154.072 47.8377 156.75 47.1203C159.427 46.4028 162.175 47.9896 162.893 50.6671L169.657 75.9125C170.375 78.5901 168.788 81.3384 166.111 82.0559C163.433 82.7733 160.685 81.1866 159.967 78.509ZM172.009 48.2244L178.774 73.4698C179.491 76.1474 182.24 77.7341 184.917 77.0167C187.595 76.2992 189.181 73.5509 188.464 70.8733L184.552 56.2743C183.322 51.6843 184.922 48.7276 188.555 47.7539C192.189 46.7802 194.861 48.5924 196.091 53.1825L200.003 67.7815C200.72 70.459 203.469 72.0458 206.146 71.3283C208.824 70.6109 210.411 67.8626 209.693 65.185L205.781 50.586C204.551 45.9959 206.151 43.0393 209.784 42.0656C213.418 41.0919 216.09 42.9041 217.32 47.4942L221.232 62.0932C221.949 64.7707 224.698 66.3575 227.375 65.64C230.053 64.9226 231.64 62.1742 230.922 59.4967L226.156 41.7101C223.953 33.4862 218.456 30.3127 211.252 32.243C206.598 33.49 203.541 36.3591 201.484 40.6683C198.777 37.704 194.868 36.6331 190.406 37.8288C185.497 39.1442 183.265 42.5437 181.802 46.0104L181.699 45.6279C180.982 42.9504 178.234 41.3636 175.556 42.081C172.879 42.7985 171.292 45.5468 172.009 48.2244Z" fill="black"/>
<path d="M162.893 50.6671L164.342 50.2789L162.893 50.6671ZM169.657 75.9125L168.209 76.3008L169.657 75.9125ZM209.693 65.185L208.244 65.5732L209.693 65.185ZM205.781 50.586L207.23 50.1978L205.781 50.586ZM201.484 40.6683L200.376 41.6799L201.878 43.3243L202.838 41.3144L201.484 40.6683ZM181.802 46.0104L180.353 46.3986L181.485 50.6215L183.184 46.5935L181.802 46.0104ZM147.021 38.285L147.056 38.4126L149.953 37.6361L149.919 37.5086L147.021 38.285ZM152.288 30.4696C150.499 30.9489 148.938 31.9056 147.934 33.2768C146.907 34.6785 146.526 36.4356 147.021 38.285L149.919 37.5086C149.663 36.553 149.855 35.7309 150.354 35.0497C150.875 34.338 151.793 33.708 153.065 33.3674L152.288 30.4696ZM160.757 34.6046C160.261 32.7552 159.053 31.4241 157.462 30.7236C155.907 30.0384 154.077 29.9903 152.288 30.4696L153.065 33.3674C154.336 33.0268 155.446 33.1134 156.253 33.469C157.026 33.8095 157.603 34.4255 157.859 35.3811L160.757 34.6046ZM160.791 34.7321L160.757 34.6046L157.859 35.3811L157.893 35.5086L160.791 34.7321ZM155.541 42.6113C157.343 42.1287 158.9 41.1487 159.896 39.7603C160.911 38.3457 161.286 36.5781 160.791 34.7321L157.893 35.5086C158.15 36.4677 157.961 37.3112 157.458 38.0114C156.937 38.7377 156.024 39.3762 154.765 39.7135L155.541 42.6113ZM147.056 38.4126C147.55 40.2585 148.759 41.6018 150.345 42.3194C151.902 43.0237 153.74 43.0939 155.541 42.6113L154.765 39.7135C153.506 40.0509 152.396 39.9545 151.581 39.5861C150.796 39.2309 150.21 38.5952 149.953 37.6361L147.056 38.4126ZM151.754 53.6518L158.518 78.8972L161.416 78.1208L154.652 52.8753L151.754 53.6518ZM156.361 45.6714C152.884 46.6032 150.822 50.1741 151.754 53.6518L154.652 52.8753C154.149 50.998 155.26 49.0722 157.138 48.5691L156.361 45.6714ZM164.342 50.2789C163.41 46.8011 159.839 44.7395 156.361 45.6714L157.138 48.5691C159.015 48.0661 160.941 49.178 161.444 51.0553L164.342 50.2789ZM171.106 75.5243L164.342 50.2789L161.444 51.0553L168.209 76.3008L171.106 75.5243ZM166.499 83.5048C169.977 82.5729 172.038 79.0021 171.106 75.5243L168.209 76.3008C168.712 78.1781 167.6 80.1039 165.722 80.607L166.499 83.5048ZM158.518 78.8972C159.45 82.375 163.021 84.4366 166.499 83.5048L165.722 80.607C163.845 81.11 161.919 79.9981 161.416 78.1208L158.518 78.8972ZM180.223 73.0816L173.458 47.8361L170.56 48.6126L177.325 73.858L180.223 73.0816ZM184.529 75.5678C182.652 76.0708 180.726 74.9589 180.223 73.0816L177.325 73.858C178.257 77.3358 181.828 79.3974 185.305 78.4655L184.529 75.5678ZM187.015 71.2616C187.518 73.1389 186.406 75.0647 184.529 75.5678L185.305 78.4655C188.783 77.5337 190.845 73.9629 189.913 70.4851L187.015 71.2616ZM183.103 56.6626L187.015 71.2616L189.913 70.4851L186.001 55.8861L183.103 56.6626ZM188.167 46.305C186.022 46.8797 184.311 48.0975 183.382 50C182.471 51.8659 182.431 54.1521 183.103 56.6626L186.001 55.8861C185.444 53.8065 185.588 52.3193 186.078 51.316C186.55 50.3491 187.454 49.6018 188.944 49.2028L188.167 46.305ZM197.54 52.7943C196.875 50.3125 195.759 48.3406 194.093 47.1583C192.376 45.9409 190.316 45.7291 188.167 46.305L188.944 49.2028C190.428 48.805 191.521 49.0125 192.357 49.6052C193.242 50.2332 194.077 51.4624 194.642 53.5707L197.54 52.7943ZM201.452 67.3933L197.54 52.7943L194.642 53.5707L198.554 68.1697L201.452 67.3933ZM205.758 69.8794C203.881 70.3825 201.955 69.2706 201.452 67.3933L198.554 68.1697C199.486 71.6475 203.057 73.7091 206.534 72.7772L205.758 69.8794ZM208.244 65.5732C208.747 67.4506 207.635 69.3764 205.758 69.8794L206.534 72.7772C210.012 71.8454 212.074 68.2745 211.142 64.7968L208.244 65.5732ZM204.332 50.9742L208.244 65.5732L211.142 64.7968L207.23 50.1978L204.332 50.9742ZM209.396 40.6167C207.251 41.1914 205.54 42.4092 204.611 44.3116C203.7 46.1776 203.66 48.4637 204.332 50.9742L207.23 50.1978C206.673 48.1182 206.817 46.631 207.307 45.6276C207.779 44.6608 208.684 43.9135 210.173 43.5145L209.396 40.6167ZM218.769 47.1059C218.104 44.6242 216.988 42.6523 215.322 41.47C213.605 40.2526 211.546 40.0408 209.396 40.6167L210.173 43.5145C211.657 43.1167 212.75 43.3241 213.586 43.9169C214.471 44.5448 215.306 45.774 215.871 47.8824L218.769 47.1059ZM222.681 61.7049L218.769 47.1059L215.871 47.8824L219.783 62.4814L222.681 61.7049ZM226.987 64.1911C225.11 64.6942 223.184 63.5823 222.681 61.7049L219.783 62.4814C220.715 65.9591 224.286 68.0208 227.764 67.0889L226.987 64.1911ZM229.473 59.8849C229.976 61.7623 228.864 63.6881 226.987 64.1911L227.764 67.0889C231.241 66.157 233.303 62.5862 232.371 59.1085L229.473 59.8849ZM224.707 42.0984L229.473 59.8849L232.371 59.1085L227.605 41.3219L224.707 42.0984ZM211.64 33.6919C214.949 32.8054 217.675 33.1337 219.789 34.4438C221.919 35.7634 223.671 38.2293 224.707 42.0984L227.605 41.3219C226.438 36.9671 224.34 33.7342 221.369 31.8937C218.384 30.0437 214.76 29.7503 210.864 30.7941L211.64 33.6919ZM202.838 41.3144C204.733 37.3431 207.469 34.8097 211.64 33.6919L210.864 30.7941C205.728 32.1703 202.348 35.3752 200.13 40.0222L202.838 41.3144ZM190.794 39.2777C194.783 38.2089 198.092 39.1785 200.376 41.6799L202.592 39.6567C199.461 36.2296 194.954 35.0573 190.017 36.38L190.794 39.2777ZM183.184 46.5935C184.564 43.3227 186.528 40.4207 190.794 39.2777L190.017 36.38C184.465 37.8676 181.965 41.7647 180.42 45.4273L183.184 46.5935ZM180.251 46.0161L180.353 46.3986L183.251 45.6222L183.148 45.2397L180.251 46.0161ZM175.944 43.5299C177.822 43.0269 179.748 44.1388 180.251 46.0161L183.148 45.2397C182.217 41.7619 178.646 39.7003 175.168 40.6322L175.944 43.5299ZM173.458 47.8361C172.955 45.9588 174.067 44.033 175.944 43.5299L175.168 40.6322C171.69 41.564 169.629 45.1349 170.56 48.6126L173.458 47.8361Z" fill="black"/>
</g>
<path id="Path" fill-rule="evenodd" clip-rule="evenodd" d="M140.352 83.0815C139.532 80.0215 141.259 77.0306 144.447 76.1765C147.634 75.3224 150.625 77.0492 151.445 80.1093L151.479 80.2368C152.299 83.2968 150.572 86.2876 147.385 87.1417C144.197 87.9958 141.206 86.2691 140.387 83.209L140.352 83.0815Z" fill="black"/>
<path id="Path_2" fill-rule="evenodd" clip-rule="evenodd" d="M33.3576 112.434L23.2792 74.8208C22.5618 72.1433 24.1485 69.3949 26.8261 68.6775C29.5036 67.9601 32.2519 69.5468 32.9694 72.2243L38.6406 93.3897L47.6786 78.6689C48.7224 76.9543 49.6478 75.8181 51.3691 75.3569C53.9829 74.6565 56.2041 76.3162 56.802 78.5475C57.2461 80.205 56.6953 81.7192 55.6981 83.3529L49.8075 91.9691L62.2207 101.83C63.3569 102.756 63.9786 103.546 64.269 104.63C64.9694 107.243 63.3439 109.592 60.9213 110.241C59.0088 110.754 57.6905 110.424 56.1159 109.137L44.511 99.7428L41.5617 104.291L43.0478 109.837C43.7653 112.515 42.1785 115.263 39.501 115.981C36.8234 116.698 34.0751 115.112 33.3576 112.434Z" fill="white"/>
<path id="Combined Shape" fill-rule="evenodd" clip-rule="evenodd" d="M87.7992 103.449C92.7718 102.117 96.2336 99.4811 98.5466 96.1282C99.077 95.3028 99.3946 94.1928 99.0529 92.9178C98.4721 90.7502 96.4342 89.5198 94.2667 90.1005C93.2467 90.3739 92.6775 90.7997 92.1129 91.4976C90.5295 93.4934 88.5202 94.92 85.8427 95.6375C81.5076 96.7991 77.8326 95.324 75.6977 91.1814L94.8868 86.0397C97.4368 85.3564 98.9177 82.9781 98.1661 80.173C96.27 73.0966 88.7226 65.0747 77.3112 68.1324C67.366 70.7972 62.5695 80.6918 65.183 90.4457L65.2172 90.5732C68.0186 101.028 77.5353 106.2 87.7992 103.449ZM88.5464 81.2474L73.9474 85.1592C73.5337 80.5554 75.3788 76.9862 79.3952 75.91C83.4752 74.8168 86.8111 77.0661 88.5464 81.2474Z" fill="white"/>
<path id="Path_3" fill-rule="evenodd" clip-rule="evenodd" d="M122.637 93.9779C118.429 95.1053 113.578 95.1069 108.717 93.5397C107.526 93.1755 106.39 92.25 105.98 90.72C105.399 88.5524 106.613 86.4508 108.78 85.87C109.482 85.6821 110.234 85.6854 110.829 85.8675C114.627 87.0364 118.152 87.1852 120.893 86.4507C123.698 85.6991 124.7 84.3374 124.29 82.8074L124.256 82.6799C123.692 80.5761 120.189 80.7631 116.12 80.6234C110.963 80.5021 104.947 79.7228 103.17 73.0926L103.136 72.9651C101.274 66.0163 105.842 60.6242 112.727 58.7794C116.297 57.8228 120.251 57.7883 124.01 58.5575C125.601 58.883 126.835 59.9189 127.279 61.5764C127.86 63.7439 126.583 65.8627 124.415 66.4435C123.714 66.6314 123.233 66.6234 122.51 66.4755C119.41 65.8713 116.575 65.7429 114.535 66.2895C112.176 66.9215 111.238 68.2661 111.596 69.6049L111.631 69.7324C112.143 71.6449 115.634 71.6662 119.673 71.9505C124.881 72.2631 131.042 73.072 132.717 79.3196L132.751 79.4471C134.783 87.0335 130.032 91.9964 122.637 93.9779Z" fill="white"/>
</g>
</svg>
