<svg xmlns="http://www.w3.org/2000/svg" xmlns:xlink="http://www.w3.org/1999/xlink" width="152px" height="102px" viewBox="0 0 152 102" version="1.1" transform="matrix(1, 0, 0, 1, 0, 0)">
    <!-- Generator: Sketch 57.1 (83088) - https://sketch.com -->
    <title>Logo</title>
    <desc fill="#ffffff">Created with Sketch.</desc>
    <g id="Page-1" stroke="none" stroke-width="1" fill="none" fill-rule="evenodd">
        <g id="002_kes.im-Focus-2" transform="translate(-646.000000, -178.000000)">
            <g id="Logo" transform="translate(637.611771, 167.000000)">
                <g id="Group" transform="translate(82.500000, 57.500000) rotate(-15.000000) translate(-82.500000, -57.500000) translate(8.000000, 18.000000)">
                    <path d="M3.73012854,23.0317153 L0.324732966,73.2613 C0.175303853,75.4653794 1.84092702,77.373275 4.04500643,77.5227042 C4.28659806,77.5390833 4.52917796,77.5334909 4.76975814,77.505996 L84.5967812,68.3829077 C86.3261109,68.18527 87.7291247,66.8920098 88.0666627,65.1844648 L95.1162701,29.5217447 C95.5446707,27.3545418 94.135093,25.2503895 91.9678901,24.821989 C91.7977437,24.7883554 91.62559,24.7658236 91.4525189,24.7545364 L7.9812839,19.3107602 C5.78082972,19.1672523 3.8792864,20.8316369 3.73012854,23.0317153 Z" id="Path-2" fill="#4779FF" transform="translate(48.000000, 48.551111) rotate(-360.000000) translate(-48.000000, -48.551111) "/>
                    <path d="M98.988,31.2631113 L98.988,31.1751113 C98.988,29.2391113 100.616,28.0511113 102.728,28.0511113 C104.84,28.0511113 106.468,29.2391113 106.468,31.1751113 L106.468,31.2631113 C106.468,33.1991113 104.84,34.4311113 102.728,34.4311113 C100.616,34.4311113 98.988,33.1991113 98.988,31.2631113 Z M99.384,59.3111113 L99.384,41.8871113 C99.384,40.0391113 100.88,38.5431113 102.728,38.5431113 C104.576,38.5431113 106.072,40.0391113 106.072,41.8871113 L106.072,59.3111113 C106.072,61.1591113 104.576,62.6551113 102.728,62.6551113 C100.88,62.6551113 99.384,61.1591113 99.384,59.3111113 Z M112.364,59.3111113 L112.364,41.8871113 C112.364,40.0391113 113.86,38.5431113 115.708,38.5431113 C117.556,38.5431113 119.052,40.0391113 119.052,41.8871113 L119.052,42.1511113 C120.592,40.1711113 122.616,38.3671113 126.004,38.3671113 C129.084,38.3671113 131.416,39.7311113 132.648,42.1071113 C134.716,39.6871113 137.18,38.3671113 140.392,38.3671113 C145.364,38.3671113 148.356,41.3591113 148.356,47.0351113 L148.356,59.3111113 C148.356,61.1591113 146.86,62.6551113 145.012,62.6551113 C143.164,62.6551113 141.668,61.1591113 141.668,59.3111113 L141.668,49.2351113 C141.668,46.0671113 140.26,44.4391113 137.752,44.4391113 C135.244,44.4391113 133.704,46.0671113 133.704,49.2351113 L133.704,59.3111113 C133.704,61.1591113 132.208,62.6551113 130.36,62.6551113 C128.512,62.6551113 127.016,61.1591113 127.016,59.3111113 L127.016,49.2351113 C127.016,46.0671113 125.608,44.4391113 123.1,44.4391113 C120.592,44.4391113 119.052,46.0671113 119.052,49.2351113 L119.052,59.3111113 C119.052,61.1591113 117.556,62.6551113 115.708,62.6551113 C113.86,62.6551113 112.364,61.1591113 112.364,59.3111113 Z" id="kes.im" stroke="#ffffff" stroke-width="2" fill="#ffffff" fill-rule="nonzero" transform="translate(123.672000, 45.353111) rotate(-360.000000) translate(-123.672000, -45.353111) "/>
                    <path d="M85.964,58.8711113 C85.964,56.7591113 87.592,55.1311113 89.792,55.1311113 C91.992,55.1311113 93.62,56.7591113 93.62,58.8711113 L93.62,58.9591113 C93.62,61.0711113 91.992,62.6991113 89.792,62.6991113 C87.592,62.6991113 85.964,61.0711113 85.964,58.9591113 L85.964,58.8711113 Z" id="Path" fill="#ffffff" transform="translate(89.792000, 58.915111) rotate(-360.000000) translate(-89.792000, -58.915111) "/>
                    <path d="M12,59.3111113 L12,33.3511113 C12,31.5031113 13.496,30.0071113 15.344,30.0071113 C17.192,30.0071113 18.688,31.5031113 18.688,33.3511113 L18.688,47.9591113 L27.048,40.0391113 C28.016,39.1151113 28.808,38.5431113 29.996,38.5431113 C31.8,38.5431113 32.944,39.9951113 32.944,41.5351113 C32.944,42.6791113 32.328,43.5591113 31.404,44.4391113 L26.124,48.9711113 L32.416,57.4631113 C32.988,58.2551113 33.252,58.8711113 33.252,59.6191113 C33.252,61.4231113 31.8,62.6551113 30.128,62.6551113 C28.808,62.6551113 28.016,62.2151113 27.224,61.1151113 L21.372,53.0631113 L18.688,55.4831113 L18.688,59.3111113 C18.688,61.1591113 17.192,62.6551113 15.344,62.6551113 C13.496,62.6551113 12,61.1591113 12,59.3111113 Z" id="Path" fill="#ffffff" transform="translate(22.626000, 46.331111) rotate(-360.000000) translate(-22.626000, -46.331111) "/>
                    <path d="M47.948,38.3671113 C55.824,38.3671113 59.3,44.8351113 59.3,49.7191113 C59.3,51.6551113 57.936,52.9311113 56.176,52.9311113 L42.932,52.9311113 C43.592,55.9671113 45.704,57.5511113 48.696,57.5511113 C50.544,57.5511113 52.084,56.9791113 53.448,55.9671113 C53.932,55.6151113 54.372,55.4391113 55.076,55.4391113 C56.572,55.4391113 57.672,56.5831113 57.672,58.0791113 C57.672,58.9591113 57.276,59.6191113 56.792,60.0591113 C54.724,61.8191113 52.04,62.9191113 48.608,62.9191113 C41.524,62.9191113 36.288,57.9471113 36.288,50.7311113 L36.288,50.6431113 C36.288,43.9111113 41.084,38.3671113 47.948,38.3671113 Z M47.948,43.7351113 C45.176,43.7351113 43.372,45.7151113 42.844,48.7511113 L52.92,48.7511113 C52.524,45.7591113 50.764,43.7351113 47.948,43.7351113 Z" id="Combined-Shape" fill="#ffffff" transform="translate(47.794000, 50.643111) rotate(-360.000000) translate(-47.794000, -50.643111) "/>
                    <path d="M72.676,62.8311113 C69.772,62.8311113 66.648,61.9951113 63.788,60.1471113 C63.084,59.7071113 62.512,58.9151113 62.512,57.8591113 C62.512,56.3631113 63.656,55.2191113 65.152,55.2191113 C65.636,55.2191113 66.12,55.3511113 66.472,55.5711113 C68.716,56.9791113 70.96,57.6831113 72.852,57.6831113 C74.788,57.6831113 75.668,56.9791113 75.668,55.9231113 L75.668,55.8351113 C75.668,54.3831113 73.38,53.8991113 70.784,53.1071113 C67.484,52.1391113 63.744,50.5991113 63.744,46.0231113 L63.744,45.9351113 C63.744,41.1391113 67.616,38.4551113 72.368,38.4551113 C74.832,38.4551113 77.384,39.1151113 79.672,40.2591113 C80.64,40.7431113 81.256,41.6231113 81.256,42.7671113 C81.256,44.2631113 80.068,45.4071113 78.572,45.4071113 C78.088,45.4071113 77.78,45.3191113 77.34,45.0991113 C75.448,44.1751113 73.644,43.6031113 72.236,43.6031113 C70.608,43.6031113 69.772,44.3071113 69.772,45.2311113 L69.772,45.3191113 C69.772,46.6391113 72.016,47.2551113 74.568,48.1351113 C77.868,49.2351113 81.696,50.8191113 81.696,55.1311113 L81.696,55.2191113 C81.696,60.4551113 77.78,62.8311113 72.676,62.8311113 Z" id="Path" fill="#ffffff" transform="translate(72.104000, 50.643111) rotate(-360.000000) translate(-72.104000, -50.643111) "/>
                    <path d="M11.0502286,15.14 C9.76222857,15.14 8.46022857,14.748 7.36822857,13.964 C7.13022857,13.796 6.96222857,13.488 6.96222857,13.152 C6.96222857,12.592 7.41022857,12.158 7.97022857,12.158 C8.25022857,12.158 8.44622857,12.256 8.58622857,12.354 C9.32822857,12.9 10.1402286,13.236 11.0922286,13.236 C11.9742286,13.236 12.5062286,12.886 12.5062286,12.312 L12.5062286,12.284 C12.5062286,11.738 12.1702286,11.458 10.5322286,11.038 C8.55822857,10.534 7.28422857,9.988 7.28422857,8.042 L7.28422857,8.014 C7.28422857,6.236 8.71222857,5.06 10.7142286,5.06 C11.9042286,5.06 12.9402286,5.368 13.8222286,5.928 C14.0602286,6.068 14.2982286,6.362 14.2982286,6.782 C14.2982286,7.342 13.8502286,7.776 13.2902286,7.776 C13.0802286,7.776 12.9122286,7.72 12.7442286,7.622 C12.0302286,7.202 11.3582286,6.964 10.6862286,6.964 C9.86022857,6.964 9.42622857,7.342 9.42622857,7.818 L9.42622857,7.846 C9.42622857,8.49 9.84622857,8.7 11.5402286,9.134 C13.5282286,9.652 14.6482286,10.366 14.6482286,12.074 L14.6482286,12.102 C14.6482286,14.048 13.1642286,15.14 11.0502286,15.14 Z M16.3002286,14.02 L16.3002286,5.76 C16.3002286,5.172 16.7762286,4.696 17.3642286,4.696 C17.9522286,4.696 18.4282286,5.172 18.4282286,5.76 L18.4282286,8.56 C18.9182286,7.93 19.5482286,7.356 20.6262286,7.356 C22.2362286,7.356 23.1742286,8.42 23.1742286,10.142 L23.1742286,14.02 C23.1742286,14.608 22.6982286,15.084 22.1102286,15.084 C21.5222286,15.084 21.0462286,14.608 21.0462286,14.02 L21.0462286,10.814 C21.0462286,9.806 20.5702286,9.288 19.7582286,9.288 C18.9462286,9.288 18.4282286,9.806 18.4282286,10.814 L18.4282286,14.02 C18.4282286,14.608 17.9522286,15.084 17.3642286,15.084 C16.7762286,15.084 16.3002286,14.608 16.3002286,14.02 Z M28.7042286,15.168 C26.3802286,15.168 24.6582286,13.446 24.6582286,11.29 L24.6582286,11.262 C24.6582286,9.106 26.3942286,7.356 28.7322286,7.356 C31.0562286,7.356 32.7782286,9.078 32.7782286,11.234 L32.7782286,11.262 C32.7782286,13.418 31.0422286,15.168 28.7042286,15.168 Z M28.7322286,13.334 C29.9502286,13.334 30.6782286,12.396 30.6782286,11.29 L30.6782286,11.262 C30.6782286,10.156 29.8802286,9.19 28.7042286,9.19 C27.4862286,9.19 26.7582286,10.128 26.7582286,11.234 L26.7582286,11.262 C26.7582286,12.368 27.5562286,13.334 28.7322286,13.334 Z M34.3182286,14.02 L34.3182286,8.476 C34.3182286,7.888 34.7942286,7.412 35.3822286,7.412 C35.9702286,7.412 36.4462286,7.888 36.4462286,8.476 L36.4462286,8.812 C36.7542286,8.084 37.2582286,7.412 37.8882286,7.412 C38.5462286,7.412 38.9242286,7.846 38.9242286,8.448 C38.9242286,9.008 38.5602286,9.344 38.1262286,9.442 C37.0482286,9.694 36.4462286,10.52 36.4462286,12.032 L36.4462286,14.02 C36.4462286,14.608 35.9702286,15.084 35.3822286,15.084 C34.7942286,15.084 34.3182286,14.608 34.3182286,14.02 Z M42.7042286,15.126 C41.4022286,15.126 40.5202286,14.608 40.5202286,12.872 L40.5202286,9.316 L40.4502286,9.316 C39.9462286,9.316 39.5402286,8.91 39.5402286,8.406 C39.5402286,7.902 39.9462286,7.496 40.4502286,7.496 L40.5202286,7.496 L40.5202286,6.558 C40.5202286,5.97 40.9962286,5.494 41.5842286,5.494 C42.1722286,5.494 42.6482286,5.97 42.6482286,6.558 L42.6482286,7.496 L43.5862286,7.496 C44.0902286,7.496 44.4962286,7.902 44.4962286,8.406 C44.4962286,8.91 44.0902286,9.316 43.5862286,9.316 L42.6482286,9.316 L42.6482286,12.522 C42.6482286,13.012 42.8582286,13.25 43.3342286,13.25 C43.4042286,13.25 43.5442286,13.236 43.5862286,13.236 C44.0622286,13.236 44.4682286,13.628 44.4682286,14.118 C44.4682286,14.496 44.2162286,14.804 43.9222286,14.916 C43.5302286,15.07 43.1662286,15.126 42.7042286,15.126 Z M47.4922286,10.66 L50.6982286,10.66 C50.5722286,9.708 50.0122286,9.064 49.1162286,9.064 C48.2342286,9.064 47.6602286,9.694 47.4922286,10.66 Z M51.9302286,14.258 C51.2722286,14.818 50.4182286,15.168 49.3262286,15.168 C47.0722286,15.168 45.4062286,13.586 45.4062286,11.29 L45.4062286,11.262 C45.4062286,9.12 46.9322286,7.356 49.1162286,7.356 C51.6222286,7.356 52.7282286,9.414 52.7282286,10.968 C52.7282286,11.584 52.2942286,11.99 51.7342286,11.99 L47.5202286,11.99 C47.7302286,12.956 48.4022286,13.46 49.3542286,13.46 C49.9422286,13.46 50.4322286,13.278 50.8662286,12.956 C51.0202286,12.844 51.1602286,12.788 51.3842286,12.788 C51.8602286,12.788 52.2102286,13.152 52.2102286,13.628 C52.2102286,13.908 52.0842286,14.118 51.9302286,14.258 Z M54.3522286,14.02 L54.3522286,8.476 C54.3522286,7.888 54.8282286,7.412 55.4162286,7.412 C56.0042286,7.412 56.4802286,7.888 56.4802286,8.476 L56.4802286,8.56 C56.9702286,7.93 57.6002286,7.356 58.6782286,7.356 C60.2882286,7.356 61.2262286,8.42 61.2262286,10.142 L61.2262286,14.02 C61.2262286,14.608 60.7502286,15.084 60.1622286,15.084 C59.5742286,15.084 59.0982286,14.608 59.0982286,14.02 L59.0982286,10.814 C59.0982286,9.806 58.6222286,9.288 57.8102286,9.288 C56.9982286,9.288 56.4802286,9.806 56.4802286,10.814 L56.4802286,14.02 C56.4802286,14.608 56.0042286,15.084 55.4162286,15.084 C54.8282286,15.084 54.3522286,14.608 54.3522286,14.02 Z M68.8282286,17.282 C68.3522286,17.282 68.0162286,17.212 67.6662286,17.086 C67.3582286,16.974 66.9942286,16.722 66.9942286,16.204 C66.9942286,15.686 67.4002286,15.336 67.8342286,15.336 C68.0022286,15.336 68.1002286,15.364 68.1842286,15.392 C68.3662286,15.448 68.4782286,15.476 68.6322286,15.476 C69.0102286,15.476 69.1922286,15.406 69.3882286,15.028 L69.4582286,14.86 L66.8962286,8.924 C66.8402286,8.784 66.7842286,8.574 66.7842286,8.434 C66.7842286,7.832 67.2462286,7.412 67.8342286,7.412 C68.3662286,7.412 68.6742286,7.706 68.8562286,8.21 L70.4802286,12.578 L72.0482286,8.224 C72.2162286,7.776 72.5242286,7.412 73.0702286,7.412 C73.6162286,7.412 74.0782286,7.832 74.0782286,8.392 C74.0782286,8.56 74.0222286,8.798 73.9802286,8.896 L71.3622286,15.182 C70.7322286,16.708 70.1022286,17.282 68.8282286,17.282 Z M78.9082286,15.168 C76.5842286,15.168 74.8622286,13.446 74.8622286,11.29 L74.8622286,11.262 C74.8622286,9.106 76.5982286,7.356 78.9362286,7.356 C81.2602286,7.356 82.9822286,9.078 82.9822286,11.234 L82.9822286,11.262 C82.9822286,13.418 81.2462286,15.168 78.9082286,15.168 Z M78.9362286,13.334 C80.1542286,13.334 80.8822286,12.396 80.8822286,11.29 L80.8822286,11.262 C80.8822286,10.156 80.0842286,9.19 78.9082286,9.19 C77.6902286,9.19 76.9622286,10.128 76.9622286,11.234 L76.9622286,11.262 C76.9622286,12.368 77.7602286,13.334 78.9362286,13.334 Z M91.3402286,8.476 L91.3402286,14.02 C91.3402286,14.608 90.8642286,15.084 90.2762286,15.084 C89.6882286,15.084 89.2122286,14.608 89.2122286,14.02 L89.2122286,13.936 C88.7222286,14.566 88.0922286,15.14 87.0142286,15.14 C85.4042286,15.14 84.4662286,14.076 84.4662286,12.354 L84.4662286,8.476 C84.4662286,7.888 84.9422286,7.412 85.5302286,7.412 C86.1182286,7.412 86.5942286,7.888 86.5942286,8.476 L86.5942286,11.682 C86.5942286,12.69 87.0702286,13.208 87.8822286,13.208 C88.6942286,13.208 89.2122286,12.69 89.2122286,11.682 L89.2122286,8.476 C89.2122286,7.888 89.6882286,7.412 90.2762286,7.412 C90.8642286,7.412 91.3402286,7.888 91.3402286,8.476 Z M93.2442286,14.02 L93.2442286,8.476 C93.2442286,7.888 93.7202286,7.412 94.3082286,7.412 C94.8962286,7.412 95.3722286,7.888 95.3722286,8.476 L95.3722286,8.812 C95.6802286,8.084 96.1842286,7.412 96.8142286,7.412 C97.4722286,7.412 97.8502286,7.846 97.8502286,8.448 C97.8502286,9.008 97.4862286,9.344 97.0522286,9.442 C95.9742286,9.694 95.3722286,10.52 95.3722286,12.032 L95.3722286,14.02 C95.3722286,14.608 94.8962286,15.084 94.3082286,15.084 C93.7202286,15.084 93.2442286,14.608 93.2442286,14.02 Z M103.394229,14.02 L103.394229,5.76 C103.394229,5.172 103.870229,4.696 104.458229,4.696 C105.046229,4.696 105.522229,5.172 105.522229,5.76 L105.522229,14.02 C105.522229,14.608 105.046229,15.084 104.458229,15.084 C103.870229,15.084 103.394229,14.608 103.394229,14.02 Z M107.496229,5.732 L107.496229,5.704 C107.496229,5.088 108.014229,4.71 108.686229,4.71 C109.358229,4.71 109.876229,5.088 109.876229,5.704 L109.876229,5.732 C109.876229,6.348 109.358229,6.74 108.686229,6.74 C108.014229,6.74 107.496229,6.348 107.496229,5.732 Z M107.622229,14.02 L107.622229,8.476 C107.622229,7.888 108.098229,7.412 108.686229,7.412 C109.274229,7.412 109.750229,7.888 109.750229,8.476 L109.750229,14.02 C109.750229,14.608 109.274229,15.084 108.686229,15.084 C108.098229,15.084 107.622229,14.608 107.622229,14.02 Z M111.752229,14.02 L111.752229,8.476 C111.752229,7.888 112.228229,7.412 112.816229,7.412 C113.404229,7.412 113.880229,7.888 113.880229,8.476 L113.880229,8.56 C114.370229,7.93 115.000229,7.356 116.078229,7.356 C117.688229,7.356 118.626229,8.42 118.626229,10.142 L118.626229,14.02 C118.626229,14.608 118.150229,15.084 117.562229,15.084 C116.974229,15.084 116.498229,14.608 116.498229,14.02 L116.498229,10.814 C116.498229,9.806 116.022229,9.288 115.210229,9.288 C114.398229,9.288 113.880229,9.806 113.880229,10.814 L113.880229,14.02 C113.880229,14.608 113.404229,15.084 112.816229,15.084 C112.228229,15.084 111.752229,14.608 111.752229,14.02 Z M120.474229,14.02 L120.474229,5.76 C120.474229,5.172 120.950229,4.696 121.538229,4.696 C122.126229,4.696 122.602229,5.172 122.602229,5.76 L122.602229,10.408 L125.262229,7.888 C125.570229,7.594 125.822229,7.412 126.200229,7.412 C126.774229,7.412 127.138229,7.874 127.138229,8.364 C127.138229,8.728 126.942229,9.008 126.648229,9.288 L124.968229,10.73 L126.970229,13.432 C127.152229,13.684 127.236229,13.88 127.236229,14.118 C127.236229,14.692 126.774229,15.084 126.242229,15.084 C125.822229,15.084 125.570229,14.944 125.318229,14.594 L123.456229,12.032 L122.602229,12.802 L122.602229,14.02 C122.602229,14.608 122.126229,15.084 121.538229,15.084 C120.950229,15.084 120.474229,14.608 120.474229,14.02 Z M131.338229,15.14 C130.414229,15.14 129.420229,14.874 128.510229,14.286 C128.286229,14.146 128.104229,13.894 128.104229,13.558 C128.104229,13.082 128.468229,12.718 128.944229,12.718 C129.098229,12.718 129.252229,12.76 129.364229,12.83 C130.078229,13.278 130.792229,13.502 131.394229,13.502 C132.010229,13.502 132.290229,13.278 132.290229,12.942 L132.290229,12.914 C132.290229,12.452 131.562229,12.298 130.736229,12.046 C129.686229,11.738 128.496229,11.248 128.496229,9.792 L128.496229,9.764 C128.496229,8.238 129.728229,7.384 131.240229,7.384 C132.024229,7.384 132.836229,7.594 133.564229,7.958 C133.872229,8.112 134.068229,8.392 134.068229,8.756 C134.068229,9.232 133.690229,9.596 133.214229,9.596 C133.060229,9.596 132.962229,9.568 132.822229,9.498 C132.220229,9.204 131.646229,9.022 131.198229,9.022 C130.680229,9.022 130.414229,9.246 130.414229,9.54 L130.414229,9.568 C130.414229,9.988 131.128229,10.184 131.940229,10.464 C132.990229,10.814 134.208229,11.318 134.208229,12.69 L134.208229,12.718 C134.208229,14.384 132.962229,15.14 131.338229,15.14 Z M136.406229,11.136 L135.804229,5.872 C135.762229,5.466 135.986229,5.158 136.364229,5.158 L137.736229,5.158 C138.114229,5.158 138.338229,5.466 138.296229,5.872 L137.694229,11.136 C137.652229,11.514 137.400229,11.752 137.050229,11.752 C136.700229,11.752 136.448229,11.514 136.406229,11.136 Z M135.832229,13.866 C135.832229,13.194 136.350229,12.676 137.050229,12.676 C137.750229,12.676 138.268229,13.194 138.268229,13.866 L138.268229,13.894 C138.268229,14.566 137.750229,15.084 137.050229,15.084 C136.350229,15.084 135.832229,14.566 135.832229,13.894 L135.832229,13.866 Z" id="Shortenyourlinks!" fill="#ffffff" fill-rule="nonzero" transform="translate(72.631744, 10.989000) rotate(3.000000) translate(-72.631744, -10.989000) "/>
                </g>
            </g>
        </g>
    </g>
</svg>