<svg width="246" height="170" viewBox="0 0 246 170" fill="none" xmlns="http://www.w3.org/2000/svg">
<g id="logo">
<path id="Linklerinize,k&#196;&#177;sa" fill-rule="evenodd" clip-rule="evenodd" d="M52.1329 48.5244L54.7089 60.6436C54.8923 61.5063 55.7391 62.0563 56.6018 61.8729C57.4646 61.6895 58.0145 60.8427 57.8311 59.9799L57.4513 58.1929L58.4642 56.7968L61.9951 59.9751C62.474 60.41 62.8874 60.5369 63.5037 60.4059C64.2842 60.24 64.8398 59.5207 64.6608 58.6785C64.5866 58.3293 64.4022 58.068 64.0566 57.755L60.2765 54.4149L62.2918 51.7752C62.6358 51.2727 62.8361 50.8008 62.7225 50.2667C62.5697 49.5478 61.8916 48.9834 61.0494 49.1624C60.4948 49.2803 60.1818 49.626 59.8216 50.1534L56.7047 54.6803L55.2551 47.8607C55.0717 46.998 54.2249 46.448 53.3622 46.6314C52.4994 46.8148 51.9495 47.6616 52.1329 48.5244ZM33.0825 52.5307L33.0738 52.4896C32.8817 51.5858 33.5238 50.8696 34.5098 50.6601C35.4958 50.4505 36.3737 50.8436 36.5658 51.7474L36.5745 51.7884C36.7666 52.6923 36.1289 53.4289 35.1429 53.6385C34.1569 53.8481 33.2747 53.4345 33.0825 52.5307ZM23.2915 67.1713L20.8814 55.8326C20.6937 54.9493 21.2436 54.1025 22.1269 53.9147C23.0102 53.727 23.857 54.2769 24.0448 55.1602L26.1798 65.2048L32.034 63.9605C32.8351 63.7902 33.6072 64.2916 33.7775 65.0927C33.9478 65.8938 33.4464 66.6659 32.6453 66.8362L25.2094 68.4168C24.3261 68.6045 23.4793 68.0546 23.2915 67.1713ZM34.1232 56.5174L35.8522 64.6517C36.0355 65.5144 36.8824 66.0644 37.7451 65.881C38.6078 65.6976 39.1578 64.8508 38.9744 63.9881L37.2454 55.8538C37.062 54.9911 36.2152 54.4411 35.3525 54.6245C34.4897 54.8079 33.9398 55.6547 34.1232 56.5174ZM41.9118 63.3637L40.1828 55.2294C39.9994 54.3667 40.5494 53.5199 41.4121 53.3365C42.2748 53.1531 43.1217 53.7031 43.305 54.5658L43.3312 54.689C43.8537 53.6119 44.599 52.5732 46.1807 52.237C48.5429 51.7349 50.251 53.0035 50.7881 55.53L51.9975 61.2199C52.1809 62.0827 51.6309 62.9295 50.7682 63.1129C49.9055 63.2963 49.0586 62.7463 48.8752 61.8836L47.8754 57.1797C47.561 55.7007 46.7011 55.0891 45.5097 55.3424C44.3183 55.5956 43.7198 56.5172 44.0342 57.9961L45.034 62.7001C45.2174 63.5628 44.6675 64.4096 43.8047 64.593C42.942 64.7764 42.0952 64.2264 41.9118 63.3637ZM66.9309 58.0457L64.3548 45.9265C64.1714 45.0638 64.7214 44.2169 65.5841 44.0335C66.4468 43.8502 67.2937 44.4001 67.4771 45.2628L70.0531 57.3821C70.2365 58.2448 69.6865 59.0917 68.8238 59.275C67.9611 59.4584 67.1142 58.9085 66.9309 58.0457ZM79.1731 50.291L74.4692 51.2908C74.4144 49.8211 75.0601 48.7177 76.3542 48.4427C77.6688 48.1632 78.6913 48.9335 79.1731 50.291ZM82.1028 55.1858C81.312 56.2127 80.1681 56.9925 78.5659 57.3331C75.2588 58.0361 72.3211 56.2345 71.605 52.8657L71.5963 52.8247C70.9283 49.6819 72.6171 46.6178 75.8215 45.9367C79.4984 45.1551 81.7629 47.8297 82.2476 50.1098C82.4397 51.0136 81.9295 51.7446 81.1079 51.9193L74.925 53.2335C75.5344 54.5853 76.6776 55.1153 78.0743 54.8184C78.9371 54.635 79.5993 54.2151 80.1356 53.6073C80.3266 53.395 80.5146 53.2691 80.8432 53.1993C81.5416 53.0508 82.1687 53.4758 82.3171 54.1742C82.4045 54.585 82.2851 54.9324 82.1028 55.1858ZM83.8532 45.947L85.5822 54.0813C85.7655 54.944 86.6124 55.494 87.4751 55.3106C88.3378 55.1272 88.8878 54.2804 88.7044 53.4176L88.0844 50.5008C87.6129 48.2824 88.2385 46.8827 89.7416 46.1768C90.3478 45.8976 90.7771 45.2911 90.6025 44.4695C90.4147 43.5862 89.7248 43.0673 88.7593 43.2725C87.835 43.469 87.3051 44.6121 87.0802 45.7763L86.9754 45.2834C86.792 44.4206 85.9452 43.8707 85.0825 44.0541C84.2197 44.2374 83.6698 45.0843 83.8532 45.947ZM91.5425 40.1046L91.5338 40.0636C91.3417 39.1597 91.9838 38.4436 92.9698 38.234C93.9557 38.0244 94.8337 38.4175 95.0258 39.3213L95.0345 39.3624C95.2266 40.2662 94.5888 41.0029 93.6029 41.2125C92.6169 41.422 91.7346 41.0084 91.5425 40.1046ZM92.5831 44.0914L94.3121 52.2257C94.4955 53.0884 95.3424 53.6383 96.2051 53.455C97.0678 53.2716 97.6178 52.4247 97.4344 51.562L95.7054 43.4277C95.522 42.565 94.6752 42.0151 93.8124 42.1984C92.9497 42.3818 92.3998 43.2287 92.5831 44.0914ZM100.372 50.9377L98.6428 42.8034C98.4594 41.9407 99.0093 41.0938 99.8721 40.9104C100.735 40.7271 101.582 41.277 101.765 42.1397L101.791 42.263C102.314 41.1858 103.059 40.1472 104.641 39.811C107.003 39.3089 108.711 40.5774 109.248 43.104L110.457 48.7939C110.641 49.6566 110.091 50.5035 109.228 50.6868C108.365 50.8702 107.519 50.3203 107.335 49.4575L106.335 44.7536C106.021 43.2747 105.161 42.6631 103.97 42.9163C102.778 43.1696 102.18 44.0911 102.494 45.5701L103.494 50.274C103.677 51.1367 103.127 51.9836 102.265 52.167C101.402 52.3503 100.555 51.8004 100.372 50.9377ZM110.534 36.0249L110.543 36.066C110.735 36.9698 111.617 37.3834 112.603 37.1738C113.589 36.9642 114.227 36.2275 114.035 35.3237L114.026 35.2826C113.834 34.3788 112.956 33.9858 111.97 34.1953C110.984 34.4049 110.342 35.1211 110.534 36.0249ZM113.313 48.187L111.584 40.0527C111.4 39.19 111.95 38.3431 112.813 38.1598C113.676 37.9764 114.523 38.5263 114.706 39.3891L116.435 47.5233C116.618 48.3861 116.068 49.2329 115.206 49.4163C114.343 49.5997 113.496 49.0497 113.313 48.187ZM118.919 47.1886C119.076 47.9281 119.822 48.3063 120.705 48.1185L127.73 46.6253C128.428 46.4769 128.886 45.8 128.737 45.1016C128.589 44.4032 127.891 43.9503 127.193 44.0988L122.633 45.0681L126.567 38.3277C126.947 37.6889 127.069 37.2549 126.943 36.6592L126.93 36.5976C126.772 35.8581 126.027 35.4799 125.143 35.6677L118.303 37.1216C117.605 37.2701 117.152 37.9675 117.3 38.6659C117.449 39.3643 118.142 39.7966 118.84 39.6482L123.195 38.7225L119.281 45.4585C118.901 46.0974 118.779 46.5313 118.905 47.127L118.919 47.1886ZM132.416 38.9739L137.12 37.9741C136.638 36.6166 135.615 35.8463 134.301 36.1258C133.007 36.4008 132.361 37.5042 132.416 38.9739ZM136.512 45.0162C138.115 44.6756 139.258 43.8958 140.049 42.8689C140.232 42.6155 140.351 42.2681 140.264 41.8573C140.115 41.1589 139.488 40.7339 138.79 40.8824C138.461 40.9523 138.273 41.0781 138.082 41.2904C137.546 41.8982 136.884 42.3181 136.021 42.5015C134.624 42.7984 133.481 42.2685 132.871 40.9166L139.054 39.6024C139.876 39.4278 140.386 38.6967 140.194 37.7929C139.709 35.5128 137.445 32.8382 133.768 33.6198C130.564 34.3009 128.875 37.365 129.543 40.5078L129.551 40.5488C130.267 43.9176 133.205 45.7192 136.512 45.0162ZM143.387 46.0455C143.308 45.6757 143.527 45.393 143.859 45.2366C144.854 44.7675 145.276 43.9263 145.026 42.949C144.267 42.917 143.417 42.4536 143.23 41.5703L143.221 41.5292C143.016 40.5638 143.541 39.7008 144.568 39.4824C145.718 39.2379 146.584 39.9771 146.885 41.3945L146.903 41.4766C147.221 42.9761 147.005 44.1814 146.407 45.103C145.921 45.8502 145.076 46.4164 144.316 46.578C143.761 46.6958 143.465 46.4152 143.387 46.0455ZM152.99 27.0866L155.566 39.2058C155.749 40.0686 156.596 40.6185 157.459 40.4351C158.321 40.2517 158.871 39.4049 158.688 38.5422L158.308 36.7551L159.321 35.359L162.852 38.5373C163.331 38.9723 163.744 39.0991 164.36 38.9681C165.141 38.8022 165.697 38.083 165.518 37.2408C165.443 36.8916 165.259 36.6302 164.913 36.3172L161.133 32.9771L163.149 30.3375C163.493 29.835 163.693 29.363 163.579 28.8289C163.427 28.11 162.748 27.5457 161.906 27.7247C161.352 27.8426 161.039 28.1882 160.678 28.7156L157.561 33.2426L156.112 26.4229C155.929 25.5602 155.082 25.0102 154.219 25.1936C153.356 25.377 152.806 26.2239 152.99 27.0866ZM167.788 36.608L166.059 28.4737C165.875 27.611 166.425 26.7641 167.288 26.5807C168.151 26.3974 168.998 26.9473 169.181 27.81L170.91 35.9443C171.093 36.807 170.543 37.6539 169.681 37.8373C168.818 38.0206 167.971 37.4707 167.788 36.608ZM173.643 35.7714C175.161 36.3503 176.703 36.4306 178.058 36.1424C180.441 35.6359 182.033 34.1381 181.514 31.6937L181.505 31.6527C181.077 29.6396 179.133 29.28 177.483 29.0939C177.358 29.0785 177.234 29.064 177.113 29.0497L177.112 29.0495C175.996 28.9183 175.083 28.8108 174.965 28.2552L174.956 28.2141C174.864 27.7828 175.185 27.3712 175.945 27.2096C176.602 27.0699 177.501 27.1579 178.476 27.4015C178.703 27.4606 178.856 27.4711 179.082 27.4231C179.78 27.2746 180.221 26.6227 180.073 25.9243C179.959 25.3902 179.584 25.0405 179.084 24.9106C177.903 24.6036 176.646 24.5487 175.496 24.7932C173.277 25.2647 171.736 26.902 172.212 29.141L172.221 29.182C172.675 31.3183 174.573 31.6661 176.21 31.7906C176.36 31.8036 176.508 31.8151 176.652 31.8264L176.653 31.8264L176.653 31.8264C177.748 31.9117 178.634 31.9807 178.761 32.5795L178.77 32.6206C178.874 33.1135 178.533 33.5295 177.63 33.7216C176.746 33.9094 175.629 33.8034 174.442 33.3688C174.255 33.301 174.016 33.2874 173.79 33.3354C173.092 33.4839 172.671 34.1314 172.82 34.8298C172.925 35.3228 173.27 35.6358 173.643 35.7714ZM187.63 34.1078C185.556 34.5488 183.598 33.7198 183.135 31.5424L183.126 31.5013C182.615 29.098 184.208 27.6002 186.816 27.0457C187.926 26.8099 188.766 26.8245 189.603 26.9257L189.564 26.7408C189.289 25.4467 188.335 24.898 186.774 25.2299C185.911 25.4132 185.239 25.6849 184.683 25.9964C184.511 26.0973 184.392 26.1441 184.248 26.1746C183.529 26.3275 182.836 25.8951 182.683 25.1762C182.565 24.6216 182.814 24.0749 183.268 23.7852C184.175 23.2059 185.2 22.7735 186.658 22.4635C188.363 22.1011 189.692 22.291 190.638 22.9057C191.634 23.5527 192.262 24.686 192.576 26.165L193.641 31.177C193.82 32.0192 193.282 32.8206 192.44 32.9996C191.536 33.1917 190.805 32.6815 190.666 32.0242L190.661 32.0037C190.08 33.0074 189.15 33.7847 187.63 34.1078ZM190.151 29.2997C190.391 30.4295 189.575 31.4401 188.117 31.7501C187.11 31.9641 186.307 31.6195 186.128 30.7773L186.119 30.7363C185.91 29.7503 186.618 29.0416 187.953 28.7578C188.713 28.5962 189.447 28.6121 190.033 28.7451L190.151 29.2997Z" fill="black"/>
<path id="Path 2" fill-rule="evenodd" clip-rule="evenodd" d="M18.7374 79.8507C15.4935 80.497 13.3845 83.6468 14.0226 86.8923L28.5891 160.991C29.3119 164.669 33.1912 166.791 36.6773 165.416L148.796 121.206C151.225 120.249 152.756 117.83 152.582 115.225L148.951 60.817C148.709 57.2023 145.344 54.6243 141.791 55.3322L18.7374 79.8507Z" fill="#4779FF"/>
<g id="kes.im">
<path fill-rule="evenodd" clip-rule="evenodd" d="M155.236 61.8369L155.202 61.7094C154.451 58.9043 156.348 56.551 159.408 55.7311C162.468 54.9111 165.288 56.0004 166.04 58.8054L166.074 58.9329C166.826 61.738 164.945 64.155 161.885 64.975C158.825 65.7949 155.988 64.6419 155.236 61.8369ZM166.699 102.322L159.935 77.0761C159.217 74.3986 160.804 71.6503 163.481 70.9328C166.159 70.2154 168.907 71.8021 169.625 74.4797L176.389 99.7251C177.107 102.403 175.52 105.151 172.842 105.868C170.165 106.586 167.417 104.999 166.699 102.322ZM178.741 72.0369L185.506 97.2824C186.223 99.9599 188.971 101.547 191.649 100.829C194.327 100.112 195.913 97.3634 195.196 94.6859L191.284 80.0869C190.054 75.4968 191.653 72.5401 195.287 71.5665C198.921 70.5928 201.593 72.405 202.823 76.995L206.735 91.594C207.452 94.2716 210.201 95.8583 212.878 95.1409C215.556 94.4234 217.142 91.6751 216.425 88.9976L212.513 74.3986C211.283 69.8085 212.883 66.8518 216.516 65.8781C220.15 64.9045 222.822 66.7166 224.052 71.3067L227.964 85.9057C228.681 88.5833 231.43 90.17 234.107 89.4526C236.785 88.7351 238.372 85.9868 237.654 83.3092L232.888 65.5227C230.685 57.2988 225.188 54.1253 217.984 56.0556C213.33 57.3026 210.273 60.1717 208.216 64.4809C205.508 61.5166 201.6 60.4457 197.137 61.6414C192.229 62.9567 189.996 66.3563 188.534 69.823L188.431 69.4405C187.714 66.7629 184.966 65.1762 182.288 65.8936C179.61 66.6111 178.024 69.3594 178.741 72.0369Z" fill="black"/>
<path d="M169.625 74.4797L171.074 74.0914L169.625 74.4797ZM176.389 99.7251L174.94 100.113L176.389 99.7251ZM216.425 88.9976L214.976 89.3858L216.425 88.9976ZM212.513 74.3986L213.962 74.0103L212.513 74.3986ZM208.216 64.4809L207.108 65.4925L208.61 67.1368L209.57 65.127L208.216 64.4809ZM188.534 69.823L187.085 70.2112L188.216 74.434L189.916 70.406L188.534 69.823ZM153.753 62.0976L153.787 62.2251L156.685 61.4487L156.651 61.3211L153.753 62.0976ZM159.02 54.2822C157.231 54.7615 155.67 55.7182 154.666 57.0894C153.639 58.491 153.258 60.2482 153.753 62.0976L156.651 61.3211C156.395 60.3655 156.587 59.5435 157.086 58.8623C157.607 58.1505 158.525 57.5206 159.796 57.18L159.02 54.2822ZM167.489 58.4172C166.993 56.5678 165.784 55.2366 164.194 54.5362C162.639 53.8509 160.809 53.8029 159.02 54.2822L159.796 57.18C161.068 56.8393 162.178 56.9259 162.985 57.2816C163.758 57.622 164.335 58.238 164.591 59.1937L167.489 58.4172ZM167.523 58.5447L167.489 58.4172L164.591 59.1937L164.625 59.3212L167.523 58.5447ZM162.273 66.4239C164.074 65.9412 165.631 64.9613 166.628 63.5728C167.643 62.1582 168.018 60.3907 167.523 58.5447L164.625 59.3212C164.882 60.2802 164.693 61.1238 164.19 61.8239C163.669 62.5503 162.756 63.1888 161.497 63.5261L162.273 66.4239ZM153.787 62.2251C154.282 64.0711 155.49 65.4144 157.077 66.132C158.634 66.8363 160.472 66.9065 162.273 66.4239L161.497 63.5261C160.238 63.8634 159.128 63.7671 158.313 63.3986C157.528 63.0435 156.942 62.4077 156.685 61.4487L153.787 62.2251ZM158.486 77.4644L165.25 102.71L168.148 101.933L161.383 76.6879L158.486 77.4644ZM163.093 69.4839C159.615 70.4158 157.554 73.9866 158.486 77.4644L161.383 76.6879C160.88 74.8106 161.992 72.8847 163.87 72.3817L163.093 69.4839ZM171.074 74.0914C170.142 70.6137 166.571 68.5521 163.093 69.4839L163.87 72.3817C165.747 71.8787 167.673 72.9905 168.176 74.8679L171.074 74.0914ZM177.838 99.3369L171.074 74.0914L168.176 74.8679L174.94 100.113L177.838 99.3369ZM173.231 107.317C176.708 106.385 178.77 102.815 177.838 99.3369L174.94 100.113C175.443 101.991 174.332 103.916 172.454 104.42L173.231 107.317ZM165.25 102.71C166.182 106.188 169.753 108.249 173.231 107.317L172.454 104.42C170.577 104.923 168.651 103.811 168.148 101.933L165.25 102.71ZM186.955 96.8941L180.19 71.6487L177.292 72.4252L184.057 97.6706L186.955 96.8941ZM191.261 99.3803C189.383 99.8834 187.458 98.7715 186.955 96.8941L184.057 97.6706C184.989 101.148 188.559 103.21 192.037 102.278L191.261 99.3803ZM193.747 95.0741C194.25 96.9515 193.138 98.8773 191.261 99.3803L192.037 102.278C195.515 101.346 197.577 97.7754 196.645 94.2977L193.747 95.0741ZM189.835 80.4751L193.747 95.0741L196.645 94.2977L192.733 79.6987L189.835 80.4751ZM194.899 70.1176C192.754 70.6923 191.042 71.9101 190.114 73.8125C189.203 75.6785 189.162 77.9646 189.835 80.4751L192.733 79.6987C192.176 77.6191 192.32 76.1319 192.81 75.1285C193.282 74.1617 194.186 73.4144 195.675 73.0154L194.899 70.1176ZM204.272 76.6068C203.607 74.1251 202.491 72.1531 200.824 70.9709C199.108 69.7535 197.048 69.5417 194.899 70.1176L195.675 73.0154C197.16 72.6176 198.253 72.825 199.089 73.4178C199.974 74.0457 200.809 75.2749 201.374 77.3833L204.272 76.6068ZM208.184 91.2058L204.272 76.6068L201.374 77.3833L205.286 91.9823L208.184 91.2058ZM212.49 93.692C210.613 94.195 208.687 93.0832 208.184 91.2058L205.286 91.9823C206.218 95.46 209.789 97.5216 213.266 96.5898L212.49 93.692ZM214.976 89.3858C215.479 91.2631 214.367 93.189 212.49 93.692L213.266 96.5898C216.744 95.6579 218.806 92.0871 217.874 88.6093L214.976 89.3858ZM211.064 74.7868L214.976 89.3858L217.874 88.6093L213.962 74.0103L211.064 74.7868ZM216.128 64.4293C213.983 65.0039 212.272 66.2218 211.343 68.1242C210.432 69.9901 210.392 72.2763 211.064 74.7868L213.962 74.0103C213.405 71.9308 213.549 70.4435 214.039 69.4402C214.511 68.4734 215.415 67.726 216.905 67.327L216.128 64.4293ZM225.501 70.9185C224.836 68.4367 223.72 66.4648 222.054 65.2826C220.337 64.0652 218.277 63.8533 216.128 64.4293L216.905 67.327C218.389 66.9293 219.482 67.1367 220.318 67.7295C221.203 68.3574 222.038 69.5866 222.603 71.6949L225.501 70.9185ZM229.413 85.5175L225.501 70.9185L222.603 71.6949L226.515 86.2939L229.413 85.5175ZM233.719 88.0037C231.842 88.5067 229.916 87.3948 229.413 85.5175L226.515 86.2939C227.447 89.7717 231.018 91.8333 234.495 90.9015L233.719 88.0037ZM236.205 83.6975C236.708 85.5748 235.596 87.5006 233.719 88.0037L234.495 90.9015C237.973 89.9696 240.035 86.3988 239.103 82.921L236.205 83.6975ZM231.439 65.9109L236.205 83.6975L239.103 82.921L234.337 65.1345L231.439 65.9109ZM218.372 57.5045C221.681 56.618 224.407 56.9463 226.521 58.2564C228.651 59.576 230.403 62.0418 231.439 65.9109L234.337 65.1345C233.17 60.7796 231.072 57.5468 228.101 55.7062C225.116 53.8562 221.491 53.5629 217.596 54.6067L218.372 57.5045ZM209.57 65.127C211.465 61.1556 214.201 58.6222 218.372 57.5045L217.596 54.6067C212.46 55.9829 209.08 59.1878 206.862 63.8347L209.57 65.127ZM197.526 63.0903C201.515 62.0214 204.824 62.9911 207.108 65.4925L209.323 63.4693C206.193 60.0421 201.685 58.8699 196.749 60.1925L197.526 63.0903ZM189.916 70.406C191.296 67.1353 193.26 64.2333 197.526 63.0903L196.749 60.1925C191.197 61.6802 188.697 65.5773 187.152 69.2399L189.916 70.406ZM186.982 69.8287L187.085 70.2112L189.983 69.4347L189.88 69.0522L186.982 69.8287ZM182.676 67.3425C184.554 66.8395 186.479 67.9513 186.982 69.8287L189.88 69.0522C188.948 65.5745 185.378 63.5129 181.9 64.4447L182.676 67.3425ZM180.19 71.6487C179.687 69.7714 180.799 67.8455 182.676 67.3425L181.9 64.4447C178.422 65.3766 176.36 68.9474 177.292 72.4252L180.19 71.6487Z" fill="black"/>
</g>
<path id="Path" fill-rule="evenodd" clip-rule="evenodd" d="M147.084 106.894C146.264 103.834 147.991 100.843 151.179 99.9891C154.366 99.135 157.357 100.862 158.177 103.922L158.211 104.049C159.031 107.109 157.304 110.1 154.117 110.954C150.929 111.808 147.938 110.082 147.118 107.022L147.084 106.894Z" fill="black"/>
<path id="Path_2" fill-rule="evenodd" clip-rule="evenodd" d="M40.0894 136.247L30.011 98.6334C29.2936 95.9558 30.8803 93.2075 33.5579 92.4901C36.2354 91.7726 38.9837 93.3594 39.7012 96.0369L45.3724 117.202L54.4104 102.481C55.4542 100.767 56.3796 99.6307 58.1009 99.1695C60.7147 98.4691 62.9359 100.129 63.5338 102.36C63.9779 104.018 63.4271 105.532 62.4299 107.165L56.5392 115.782L68.9525 125.643C70.0887 126.568 70.7104 127.358 71.0008 128.442C71.7011 131.056 70.0757 133.405 67.6531 134.054C65.7406 134.566 64.4222 134.236 62.8477 132.95L51.2428 123.555L48.2934 128.104L49.7796 133.65C50.497 136.328 48.9103 139.076 46.2327 139.793C43.5552 140.511 40.8069 138.924 40.0894 136.247Z" fill="white"/>
<path id="Combined Shape" fill-rule="evenodd" clip-rule="evenodd" d="M94.531 127.262C99.5036 125.929 102.965 123.294 105.278 119.941C105.809 119.115 106.126 118.005 105.785 116.73C105.204 114.563 103.166 113.332 100.998 113.913C99.9784 114.186 99.4093 114.612 98.8446 115.31C97.2613 117.306 95.252 118.733 92.5745 119.45C88.2394 120.612 84.5644 119.137 82.4295 114.994L101.619 109.852C104.169 109.169 105.65 106.791 104.898 103.986C103.002 96.9092 95.4544 88.8873 84.0429 91.945C74.0978 94.6098 69.3012 104.504 71.9148 114.258L71.949 114.386C74.7504 124.841 84.2671 130.012 94.531 127.262ZM95.2782 105.06L80.6792 108.972C80.2655 104.368 82.1106 100.799 86.1269 99.7226C90.207 98.6294 93.5428 100.879 95.2782 105.06Z" fill="white"/>
<path id="Path_3" fill-rule="evenodd" clip-rule="evenodd" d="M129.369 117.79C125.161 118.918 120.31 118.919 115.449 117.352C114.258 116.988 113.122 116.063 112.712 114.533C112.131 112.365 113.345 110.263 115.512 109.683C116.213 109.495 116.966 109.498 117.561 109.68C121.359 110.849 124.884 110.998 127.625 110.263C130.43 109.512 131.432 108.15 131.022 106.62L130.988 106.492C130.424 104.389 126.921 104.576 122.852 104.436C117.695 104.315 111.678 103.535 109.902 96.9052L109.868 96.7777C108.006 89.8288 112.574 84.4368 119.459 82.5919C123.029 81.6353 126.983 81.6008 130.742 82.3701C132.333 82.6956 133.567 83.7314 134.011 85.389C134.592 87.5565 133.314 89.6752 131.147 90.256C130.446 90.4439 129.965 90.436 129.242 90.2881C126.142 89.6838 123.306 89.5554 121.266 90.1021C118.908 90.7341 117.97 92.0787 118.328 93.4174L118.363 93.5449C118.875 95.4575 122.365 95.4788 126.405 95.7631C131.613 96.0757 137.774 96.8846 139.448 103.132L139.483 103.26C141.515 110.846 136.764 115.809 129.369 117.79Z" fill="white"/>
</g>
</svg>
