<?xml version="1.0" standalone="no"?>
<!DOCTYPE svg PUBLIC "-//W3C//DTD SVG 20010904//EN"
 "http://www.w3.org/TR/2001/REC-SVG-20010904/DTD/svg10.dtd">
<svg version="1.0" xmlns="http://www.w3.org/2000/svg"
 width="624.000000pt" height="624.000000pt" viewBox="0 0 624.000000 624.000000"
 preserveAspectRatio="xMidYMid meet">
<metadata>
Created by potrace 1.14, written by Peter Selinger 2001-2017
</metadata>
<g transform="translate(0.000000,624.000000) scale(0.100000,-0.100000)"
fill="#000000" stroke="none">
<path d="M759 5996 c-2 -2 -24 -6 -49 -9 -25 -4 -61 -11 -80 -17 -19 -6 -42
-13 -50 -15 -8 -2 -28 -9 -45 -16 -16 -7 -32 -13 -35 -14 -20 -4 -93 -45 -135
-74 -151 -105 -265 -258 -318 -428 -38 -118 -41 -146 -40 -308 1 -129 4 -164
27 -245 14 -52 28 -104 31 -114 7 -29 102 -220 127 -258 43 -62 82 -113 97
-125 8 -7 12 -13 9 -13 -7 0 112 -122 162 -165 71 -62 211 -147 336 -204 186
-84 345 -166 375 -193 14 -13 80 -73 145 -134 65 -61 133 -124 149 -138 28
-26 203 -188 285 -266 34 -32 201 -187 270 -250 85 -78 247 -229 270 -250 25
-24 213 -198 270 -250 15 -14 78 -72 140 -130 62 -58 121 -112 130 -120 9 -8
63 -58 120 -110 56 -52 117 -108 134 -124 17 -15 58 -54 92 -85 33 -31 102
-94 154 -141 51 -47 105 -96 120 -110 77 -71 237 -217 256 -235 51 -46 190
-172 219 -200 18 -16 63 -57 101 -90 37 -33 75 -67 83 -76 9 -8 57 -51 106
-94 50 -44 96 -85 103 -92 8 -7 30 -26 50 -41 21 -15 43 -33 51 -40 72 -69
362 -216 415 -211 5 0 12 -3 15 -8 5 -8 91 -31 141 -39 8 -1 31 -4 50 -7 67
-11 125 -17 235 -23 61 -3 129 -7 153 -9 23 -2 42 0 42 5 0 5 -813 821 -1806
1814 l-1807 1805 29 34 c49 58 58 70 90 122 30 49 81 167 90 209 25 111 32
185 29 286 -2 63 -6 129 -10 145 -28 136 -53 210 -103 317 -22 45 -56 107 -76
137 -20 29 -36 57 -36 61 0 5 -3 10 -7 12 -5 2 -26 25 -48 53 -63 78 -192 202
-236 225 -9 6 -24 16 -31 22 -78 73 -316 178 -473 209 -56 11 -307 23 -316 15z
m226 -521 c155 -37 299 -124 406 -245 180 -202 240 -450 156 -640 -80 -182
-349 -230 -597 -105 -261 131 -439 400 -435 656 3 178 106 307 269 338 46 9
156 7 201 -4z m1653 -2350 c73 -43 66 -171 -10 -208 -90 -44 -195 30 -178 124
17 90 108 131 188 84z"/>
<path d="M5595 5122 c-2 -3 -19 -6 -37 -8 -67 -6 -196 -39 -253 -64 -11 -5
-38 -16 -60 -25 -49 -21 -49 -20 -207 -111 -71 -41 -133 -74 -138 -74 -6 0
-10 -3 -10 -7 0 -5 -10 -13 -23 -19 -18 -9 -94 -52 -252 -144 -16 -9 -156 -89
-310 -177 -154 -89 -296 -170 -315 -182 -19 -11 -42 -24 -50 -28 -8 -4 -53
-29 -100 -56 -47 -27 -103 -59 -125 -72 -128 -72 -222 -126 -235 -135 -8 -6
-27 -15 -42 -21 -16 -6 -28 -15 -28 -20 0 -5 -4 -9 -9 -9 -5 0 -58 -28 -118
-62 -59 -33 -128 -72 -153 -86 -25 -14 -57 -33 -72 -43 -14 -11 -29 -19 -33
-19 -3 0 -37 -17 -73 -39 -37 -21 -85 -49 -107 -61 -22 -13 -53 -30 -70 -40
-16 -9 -30 -21 -30 -27 0 -13 536 -563 549 -563 7 0 99 65 148 105 9 7 25 18
36 24 11 6 27 17 34 23 8 7 21 18 30 23 22 13 329 232 349 249 18 15 123 88
178 125 20 13 38 27 41 31 3 3 41 31 85 61 44 30 85 59 91 64 6 6 37 28 70 50
32 22 61 43 64 46 3 3 43 32 89 65 46 32 104 74 130 92 25 18 57 41 71 50 14
9 27 19 30 22 4 5 602 433 656 470 43 29 219 154 229 162 6 5 33 25 62 46 28
20 80 57 114 82 34 25 87 62 118 83 31 21 58 41 61 45 3 4 38 29 78 56 40 27
69 53 64 58 -9 9 -133 42 -202 53 -50 9 -318 14 -325 7z"/>
<path d="M1863 2866 c-13 -6 -23 -14 -23 -18 0 -5 -5 -8 -10 -8 -9 0 -135 -87
-185 -127 -184 -148 -426 -281 -610 -338 -188 -57 -248 -78 -303 -106 -31 -16
-63 -29 -69 -29 -7 0 -13 -4 -13 -9 0 -5 -14 -14 -31 -21 -17 -7 -36 -18 -42
-24 -7 -6 -26 -20 -43 -31 -53 -34 -116 -87 -187 -160 -66 -67 -157 -178 -157
-192 0 -3 -6 -14 -14 -22 -15 -17 -96 -175 -101 -195 -1 -6 -7 -24 -14 -41
-11 -27 -29 -92 -47 -170 -9 -38 -13 -297 -5 -310 3 -5 7 -21 9 -35 16 -133
116 -317 237 -434 126 -122 282 -196 490 -233 52 -9 265 -9 333 1 169 24 362
102 532 215 83 55 251 212 300 280 14 19 30 39 36 45 5 6 13 18 17 26 4 8 18
33 32 55 125 206 184 465 154 668 -15 96 -20 117 -45 185 -14 37 -28 75 -31
85 -3 9 -9 17 -14 17 -5 0 -9 5 -9 11 0 6 -9 24 -20 39 -11 16 -17 34 -14 42
3 7 57 54 120 103 63 50 125 99 138 110 13 11 34 27 46 35 12 8 37 29 56 45
l33 31 -262 260 c-240 238 -264 259 -284 250z m-436 -1017 c34 -13 81 -39 103
-58 38 -32 91 -108 97 -141 2 -8 6 -28 9 -45 37 -191 -85 -435 -293 -588 -76
-56 -203 -115 -284 -133 -64 -14 -78 -16 -139 -18 -339 -14 -499 252 -346 574
17 36 33 67 36 70 3 3 18 23 35 45 99 133 235 231 395 285 36 12 79 24 95 27
17 3 32 6 33 8 2 2 47 2 100 1 73 -3 113 -9 159 -27z"/>
</g>
</svg>
