<svg width="39" height="36" viewBox="0 0 39 36" fill="none" xmlns="http://www.w3.org/2000/svg">
<path id="cut" fill-rule="evenodd" clip-rule="evenodd" d="M16.8262 18.6004C16.8262 18.1771 16.4834 17.8343 16.0601 17.8343C15.6368 17.8343 15.294 18.1771 15.294 18.6004C15.294 19.0243 15.6368 19.3671 16.0601 19.3671C16.4834 19.3671 16.8262 19.0243 16.8262 18.6004ZM4.60624 8.51419C6.09966 10.0071 8.25448 10.3742 9.31434 9.31759C9.80837 8.81978 9.91257 8.15676 9.91257 7.69405C9.91257 6.62177 9.40019 5.4982 8.51472 4.60949C7.0213 3.11877 4.86324 2.74892 3.80446 3.80825C3.30774 4.30389 3.20569 4.9626 3.20569 5.42963C3.20569 6.48409 3.73211 7.63898 4.60624 8.51419ZM10.784 2.34128C12.3255 3.88654 13.1208 5.84914 13.1208 7.69405C13.1208 9.15021 12.623 10.5275 11.6052 11.5583L34.2954 34.2408L32.2906 34.1156C30.4781 34.0022 28.7477 33.3181 27.3509 32.1573C24.7409 29.9884 7.166 13.6181 7.166 13.6181C6.45331 13.2401 5.66611 12.8578 4.79522 12.4756C4.72179 12.4486 4.57547 12.3784 4.56899 12.3752H4.57115C3.77477 11.9913 3.01564 11.4611 2.3348 10.7824C0.795489 9.2393 0.000187248 7.27345 0.000187248 5.42963C0.000187248 3.96266 0.501233 2.57453 1.53734 1.54058C3.87087 -0.79295 8.00882 -0.435523 10.784 2.34128ZM38.3537 5.87825C36.2653 5.14017 33.9582 5.35722 32.0409 6.46622C26.1597 9.86874 20.9368 12.8339 17.4237 14.8283L17.0781 15.0245L20.5617 18.6004L38.3537 5.87825ZM10.2346 28.3595C10.0602 29.4151 9.37125 30.4431 8.35296 31.1752C6.63656 32.4041 4.44664 32.4133 3.57521 31.1984C3.16541 30.631 3.17243 29.9615 3.24856 29.5004C3.42026 28.4594 4.12701 27.4077 5.13288 26.6852C6.84875 25.4564 9.03542 25.4407 9.90847 26.6615C10.3161 27.2311 10.3107 27.8984 10.2346 28.3595ZM10.3476 20.4985L10.3476 20.4985C9.23866 21.3277 7.93589 22.3018 5.9622 22.8059C5.92993 22.8146 5.89842 22.8221 5.86744 22.8296L5.86742 22.8296C5.8248 22.8399 5.78317 22.8499 5.74191 22.8621C5.73651 22.8648 5.72949 22.8675 5.72301 22.8659L5.72463 22.8685C4.87696 23.1207 4.04062 23.5219 3.25828 24.0791C1.48788 25.3511 0.383206 27.1615 0.0835509 28.9772C-0.155634 30.4258 0.112707 31.8782 0.96632 33.0682C2.88897 35.7446 7.03124 36.0636 10.2205 33.7814C11.9931 32.5067 13.0978 30.6974 13.3974 28.88C13.635 27.4427 13.3694 26.0039 12.5314 24.8198L15.0733 22.7892L11.7809 19.5173C11.3133 19.7763 10.8504 20.1225 10.3476 20.4985Z" fill="#CFD3E0"/>
</svg>
